<svg xmlns="http://www.w3.org/2000/svg" xmlns:xlink="http://www.w3.org/1999/xlink" xmlns:lucid="lucid" width="4142.36" height="2618.62"><g transform="translate(0 0)" lucid:page-tab-id="0_0"><path d="M0 0h4142.36v2618.62H0z" fill="#fff"/><path d="M611.6 83c0-4.42 3.6-8 8-8h520.8c4.4 0 8 3.58 8 8v26.15c0 4.4-3.6 8-8 8H619.6c-4.4 0-8-3.6-8-8z" stroke="#000" stroke-opacity="0" stroke-width="2" fill="#fff" fill-opacity="0"/><use xlink:href="#a" transform="matrix(1,0,0,1,611.6089147274068,74.99999999999999) translate(119.86679012345681 24.98777777777778)"/><use xlink:href="#b" transform="matrix(1,0,0,1,611.6089147274068,74.99999999999999) translate(175.151975308642 24.98777777777778)"/><use xlink:href="#c" transform="matrix(1,0,0,1,611.6089147274068,74.99999999999999) translate(245.00506172839508 24.98777777777778)"/><use xlink:href="#d" transform="matrix(1,0,0,1,611.6089147274068,74.99999999999999) translate(357.03222222222223 24.98777777777778)"/><use xlink:href="#e" transform="matrix(1,0,0,1,611.6089147274068,74.99999999999999) translate(372.9840740740741 24.98777777777778)"/><path d="M619.12 115.77h521.76M619.15 115.77h-4.03M1140.85 115.77h4.03" stroke="#b2b2b2" stroke-width="2" fill="none"/><path d="M589.5 125.15c0-4.42 3.6-8 8-8h565c4.4 0 8 3.58 8 8v15.25c0 4.4-3.6 8-8 8h-565c-4.4 0-8-3.6-8-8z" stroke="#000" stroke-opacity="0" stroke-width="2" fill="#fff" fill-opacity="0"/><use xlink:href="#f" transform="matrix(1,0,0,1,589.5143151923994,117.14666666666668) translate(195.9349485596708 16.24703703703704)"/><use xlink:href="#g" transform="matrix(1,0,0,1,589.5143151923994,117.14666666666668) translate(234.04822016460906 16.24703703703704)"/><use xlink:href="#h" transform="matrix(1,0,0,1,589.5143151923994,117.14666666666668) translate(285.0358744855967 16.24703703703704)"/><use xlink:href="#i" transform="matrix(1,0,0,1,589.5143151923994,117.14666666666668) translate(297.4853600823045 16.24703703703704)"/><use xlink:href="#j" transform="matrix(1,0,0,1,589.5143151923994,117.14666666666668) translate(332.1994547325103 16.24703703703704)"/><use xlink:href="#k" transform="matrix(1,0,0,1,589.5143151923994,117.14666666666668) translate(357.6932818930041 16.24703703703704)"/><path d="M320 245c0-2.76 2.24-5 5-5h1110c2.76 0 5 2.24 5 5v1990c0 2.76-2.24 5-5 5H325c-2.76 0-5-2.24-5-5z" stroke="#000" stroke-width="2" fill="none"/><use xlink:href="#l" transform="matrix(1,0,0,1,328,248) translate(506.075 15.6)"/><use xlink:href="#m" transform="matrix(1,0,0,1,328,248) translate(565.925 15.6)"/><path d="M119.75 959.75c0 10.9-8.84 19.75-19.75 19.75-10.9 0-19.75-8.84-19.75-19.75 0-10.9 8.84-19.75 19.75-19.75 10.9 0 19.75 8.84 19.75 19.75z" stroke="#000" stroke-width="2" fill="#fff"/><path d="M60 945c0-2.76 2.24-5 5-5h70c2.76 0 5 2.24 5 5v148c0 2.76-2.24 5-5 5H65c-2.76 0-5-2.24-5-5z" fill="none"/><path d="M100 979.5v50.3c0 2.76 1.2 6.9 2.67 9.22L140 1098m-40-63.2L60 1098m0-98.75h80" stroke="#000" stroke-width="2" fill="none"/><use xlink:href="#l" transform="matrix(1,0,0,1,-20,1098) translate(71.125 14.6)"/><use xlink:href="#n" transform="matrix(1,0,0,1,-20,1098) translate(130.975 14.6)"/><path d="M1579.75 659.75c0 10.9-8.84 19.75-19.75 19.75-10.9 0-19.75-8.84-19.75-19.75 0-10.9 8.84-19.75 19.75-19.75 10.9 0 19.75 8.84 19.75 19.75z" stroke="#000" stroke-width="2" fill="#fff"/><path d="M1520 645c0-2.76 2.24-5 5-5h70c2.76 0 5 2.24 5 5v148c0 2.76-2.24 5-5 5h-70c-2.76 0-5-2.24-5-5z" fill="none"/><path d="M1560 679.5v50.3c0 2.76 1.2 6.9 2.67 9.22L1600 798m-40-63.2l-40 63.2m0-98.75h80" stroke="#000" stroke-width="2" fill="none"/><use xlink:href="#o" transform="matrix(1,0,0,1,1440,798) translate(78.05 14.6)"/><use xlink:href="#p" transform="matrix(1,0,0,1,1440,798) translate(132.95 14.6)"/><path d="M1579.75 1239.75c0 10.9-8.84 19.75-19.75 19.75-10.9 0-19.75-8.84-19.75-19.75 0-10.9 8.84-19.75 19.75-19.75 10.9 0 19.75 8.84 19.75 19.75z" stroke="#000" stroke-width="2" fill="#fff"/><path d="M1520 1225c0-2.76 2.24-5 5-5h70c2.76 0 5 2.24 5 5v148c0 2.76-2.24 5-5 5h-70c-2.76 0-5-2.24-5-5z" fill="none"/><path d="M1560 1259.5v50.3c0 2.76 1.2 6.9 2.67 9.22L1600 1378m-40-63.2l-40 63.2m0-98.75h80" stroke="#000" stroke-width="2" fill="none"/><use xlink:href="#l" transform="matrix(1,0,0,1,1440,1378) translate(63.625 14.6)"/><use xlink:href="#q" transform="matrix(1,0,0,1,1440,1378) translate(123.475 14.6)"/><path d="M560 400c0 33.14-35.82 60-80 60s-80-26.86-80-60 35.82-60 80-60 80 26.86 80 60z" stroke="#000" stroke-width="2" fill="#fff"/><use xlink:href="#r" transform="matrix(1,0,0,1,400,340) translate(58.029999999999994 63.15)"/><path d="M560 1180c0 33.14-35.82 60-80 60s-80-26.86-80-60 35.82-60 80-60 80 26.86 80 60z" stroke="#000" stroke-width="2" fill="#fff"/><use xlink:href="#s" transform="matrix(1,0,0,1,400,1120) translate(33.73 63.15)"/><use xlink:href="#t" transform="matrix(1,0,0,1,400,1120) translate(77.28 63.15)"/><path d="M560 920c0 33.14-35.82 60-80 60s-80-26.86-80-60 35.82-60 80-60 80 26.86 80 60z" stroke="#000" stroke-width="2" fill="#fff"/><use xlink:href="#u" transform="matrix(1,0,0,1,400,860) translate(60.73 51.9)"/><use xlink:href="#v" transform="matrix(1,0,0,1,400,860) translate(27.57999999999999 73.5)"/><path d="M560 587.02c0 33.14-35.82 60-80 60s-80-26.86-80-60 35.82-60 80-60 80 26.86 80 60z" stroke="#000" stroke-width="2" fill="#fff"/><use xlink:href="#w" transform="matrix(1,0,0,1,400,527.0191037248289) translate(52.05499999999999 51.9)"/><use xlink:href="#v" transform="matrix(1,0,0,1,400,527.0191037248289) translate(27.57999999999999 73.5)"/><path d="M560 1480c0 33.14-35.82 60-80 60s-80-26.86-80-60 35.82-60 80-60 80 26.86 80 60z" stroke="#000" stroke-width="2" fill="#fff"/><use xlink:href="#x" transform="matrix(1,0,0,1,400,1420) translate(19.029999999999994 63.15)"/><use xlink:href="#y" transform="matrix(1,0,0,1,400,1420) translate(99.98 63.15)"/><path d="M1140 1930c0 33.14-35.82 60-80 60s-80-26.86-80-60 35.82-60 80-60 80 26.86 80 60z" stroke="#000" stroke-width="2" fill="#fff"/><use xlink:href="#z" transform="matrix(1,0,0,1,980,1870) translate(29.154999999999994 51.9)"/><use xlink:href="#A" transform="matrix(1,0,0,1,980,1870) translate(94.00500000000001 51.9)"/><use xlink:href="#B" transform="matrix(1,0,0,1,980,1870) translate(47.55499999999999 73.5)"/><path d="M1340 1240c0 33.14-35.82 60-80 60s-80-26.86-80-60 35.82-60 80-60 80 26.86 80 60z" stroke="#000" stroke-width="2" fill="#fff"/><use xlink:href="#C" transform="matrix(1,0,0,1,1180,1180) translate(19.529999999999994 51.9)"/><use xlink:href="#D" transform="matrix(1,0,0,1,1180,1180) translate(75.48 51.9)"/><use xlink:href="#E" transform="matrix(1,0,0,1,1180,1180) translate(54.505 73.5)"/><path d="M1100 743.14c0 33.14-35.82 60-80 60s-80-26.86-80-60c0-33.13 35.82-60 80-60s80 26.87 80 60z" stroke="#000" stroke-width="2" fill="#fff"/><use xlink:href="#F" transform="matrix(1,0,0,1,940,683.1429988377072) translate(50.58 40.65)"/><use xlink:href="#G" transform="matrix(1,0,0,1,940,683.1429988377072) translate(13.029999999999996 62.25)"/><use xlink:href="#H" transform="matrix(1,0,0,1,940,683.1429988377072) translate(83.03 62.25)"/><use xlink:href="#I" transform="matrix(1,0,0,1,940,683.1429988377072) translate(43.53 83.85000000000001)"/><path d="M1140 1780c0 33.14-35.82 60-80 60s-80-26.86-80-60 35.82-60 80-60 80 26.86 80 60z" stroke="#000" stroke-width="2" fill="#fff"/><use xlink:href="#J" transform="matrix(1,0,0,1,980,1720) translate(35.529999999999994 51.9)"/><use xlink:href="#K" transform="matrix(1,0,0,1,980,1720) translate(83.47999999999999 51.9)"/><use xlink:href="#L" transform="matrix(1,0,0,1,980,1720) translate(46.529999999999994 73.5)"/><path d="M548.32 1434.67l-9.68 2.97-.6-1.9 9.7-2.98zm29.04-8.92L558 1431.7l-.6-1.9 19.37-5.96zm29.04-8.9l-19.36 5.93-.6-1.9 19.37-5.95zm29.04-8.93l-19.36 5.95-.6-1.92 19.38-5.94zm29.04-8.9l-19.36 5.93-.58-1.9 19.36-5.96zm29.05-8.93l-19.37 5.93-.58-1.9 19.36-5.95zm29.04-8.93l-19.36 5.95-.58-1.9 19.36-5.96zm29.04-8.9l-19.35 5.93-.6-1.9 19.37-5.95zm9.7-2.98l-.2-.67h2.34zm77.43-23.8l-4.93 1.53h-6.82l11.17-3.43zm29.05-8.9l-19.36 5.94-.6-1.9 19.37-5.96zm29.04-8.92l-19.36 5.94-.6-1.9 19.37-5.95zm29.04-8.92l-19.36 5.95-.6-1.9 19.37-5.95zm29.04-8.9l-19.36 5.93-.6-1.92 19.37-5.95zm29.04-8.93l-19.36 5.94-.58-1.9 19.36-5.95zM1013 1292l-19.38 5.96-.58-1.9 19.36-5.96zm29.03-8.9l-19.36 5.94-.6-1.9 19.37-5.95zm29.04-8.92l-19.36 5.95-.58-1.92 19.36-5.93zm29.04-8.9l-19.35 5.93-.6-1.9 19.37-5.95zm29.05-8.93l-19.36 5.94-.6-1.92 19.37-5.94zm29.04-8.92l-19.37 5.95-.58-1.9 19.36-5.96zm19.36-5.94l-9.7 2.96-.57-1.9 9.67-2.98z"/><path d="M1179 1240l-14.6 16.03-1.5-1.34 12.34-13.55-17.8-4.28.47-1.95zM538.66 1437.63l-.3.1-1.94-1.5 1.65-.5z"/><use xlink:href="#M" transform="matrix(1,0,0,1,741.2627005196537,1347.025491709165) translate(0 14.4)"/><path d="M530 1418.88l-5.12 8.43-1.7-1.03 5.1-8.43zm15.35-25.3l-10.23 16.87-1.7-1.04 10.22-16.85zm15.35-25.28l-10.23 16.86-1.7-1.04 10.22-16.86zm15.35-25.3l-10.23 16.87-1.7-1.04 10.22-16.86zm15.35-25.28l-10.23 16.86-1.7-1.04 10.22-16.86zm15.35-25.3l-10.23 16.87-1.7-1.04 10.22-16.86zm15.35-25.27L611.87 1284l-1.7-1.03 10.22-16.86zm15.35-25.3l-10.23 16.87-1.7-1.04 10.22-16.86zm15.35-25.28l-10.23 16.86-1.7-1.04 10.22-16.87zm15.35-25.3l-10.23 16.87-1.7-1.04 10.22-16.86zM683.5 1166l-10.23 16.85-1.7-1.04 10.22-16.85zm15.35-25.3l-10.23 16.86-1.7-1.04 10.22-16.85zm15.35-25.3l-10.23 16.87-1.7-1.03 10.22-16.86zm15.35-25.27L719.32 1107l-1.7-1.05 10.22-16.86zm15.35-25.3l-10.23 16.87-1.7-1.04 10.22-16.86zm15.35-25.28l-10.23 16.86-1.7-1.03 10.22-16.86zm15.35-25.3l-10.23 16.87-1.7-1.04 10.22-16.86zm15.35-25.28l-10.23 16.86-1.7-1.04 10.22-16.87zm15.35-25.3l-10.23 16.87-1.7-1.04 10.22-16.85zm5.12-8.42l-1.7-1.03 6.5-10.73h2.34zM837 913.1l-5.33 8.8h-2.34l5.96-9.83zm15.35-25.28l-10.23 16.86-1.7-1.04 10.22-16.86zm15.35-25.3l-10.23 16.87-1.7-1.05 10.22-16.86zm5.12-8.42l-1.7-1.04 2.16-3.57h2.33zm25.58-42.15l-9.67 15.94h-2.07l-.2-.13 10.23-16.86zm15.35-25.3l-10.23 16.87-1.7-1.03 10.22-16.87zm15.35-25.27l-10.23 16.85-1.7-1.03 10.22-16.86zm10.24-16.86l-5.12 8.43-1.7-1.04 5.1-8.42z"/><path d="M939 743.13v.42l.03.8-1.42-.85 1.46-2.4zM525.33 1406.67l-.2 18.3 16.14-8.62.94 1.76-19.1 10.24.23-21.7z"/><use xlink:href="#N" transform="matrix(1,0,0,1,771.4427537112857,921.8938902227203) translate(0 14.4)"/><path d="M1520.06 1280.7l-159.62 172.6H553.17v-2h806.4l159.02-171.95z"/><path d="M553.2 1453.3h-.35l-1.37-2h1.7zM1522.77 1277.78l-.44.47H1520v2h.48l-.44.48-1.47-1.36 2.73-2.95zM978.7 1778.62l-1.08 1.7-8.34-5.3 1.07-1.68zm-16.7-10.56l-1.07 1.7-16.68-10.57 1.07-1.7zm-25.03-15.84l-1.06 1.7-16.68-10.57 1.07-1.7zm-25.02-15.84l-1.07 1.7-16.7-10.57 1.08-1.68zm-25.03-15.84l-1.07 1.7-16.7-10.57 1.08-1.7zm-25.03-15.84l-1.08 1.7-16.7-10.57.07-.1h3.53zm-50.07-31.68l-.7 1.12h-1.27l-15.8-10 1.08-1.68zm-25.03-15.84l-1.07 1.7-16.68-10.57 1.07-1.68zm-25.03-15.84l-1.07 1.7-16.68-10.57 1.07-1.7zm-25.03-15.84l-1.07 1.7-16.68-10.57 1.06-1.7zm-25.03-15.84l-1.06 1.7-16.68-10.57 1.07-1.7zm-25-15.84l-1.08 1.7-16.7-10.57 1.08-1.7zm-25.04-15.84l-1.07 1.7-16.7-10.57 1.07-1.68zm-25.03-15.84l-1.07 1.7-16.7-10.57 1.08-1.7zm-25.03-15.84l-1.07 1.7-16.7-10.57 1.08-1.7zm-25.03-15.84l-1.07 1.7-16.7-10.56 1.08-1.7zm-25.03-15.83l-1.07 1.7-8.34-5.3 1.07-1.68z"/><path d="M979.04 1778.84L979 1780v.4l.03.8-1.43-.9 1.07-1.7zM572.8 1509.87l-.05 2-18.3-.55 8.33 16.3-1.78.9-9.87-19.3z"/><use xlink:href="#N" transform="matrix(1,0,0,1,776.296710550714,1674.1431274283368) translate(0 14.4)"/><path d="M1177.3 1238.83l-.2 2-9.9-.97.2-2zm-19.8-1.92l-.2 2-19.8-1.92.2-2zm-29.7-2.87l-.18 2-14.6-1.43v-2zm-122.7-11.92v2.02l-16.02-1.55.2-2zm-25.72-2.5l-.2 2-19.78-1.92.2-2zm-29.7-2.87l-.18 2-19.8-1.93.2-2zm-29.67-2.88l-.2 2-19.78-1.93.2-2zm-29.68-2.88l-.2 2-19.78-1.93.2-2zm-29.7-2.88l-.18 1.98-19.8-1.92.2-2zm-29.67-2.9l-.2 2-19.8-1.93.2-2zm-29.7-2.88l-.18 2-19.8-1.93.2-2zm-29.67-2.88l-.2 2-19.8-1.93.2-1.98zm-29.7-2.88l-.18 2-19.8-1.93.2-2zm-29.68-2.88l-.2 2-19.78-1.94.2-2zm-40.87-8.05l1.9 2.73.2 1.55 9.1.9-.2 1.98-10.7-1.03-.3-2.66-1.3-1.84-2.14-.87-1.6.18-1.83 1.28-1.25 3.07-11.92-1.16.2-2 10.43 1.02.9-2.24 2.73-1.9 2.6-.32zm-31 1.07l-.2 2-22.36-2.18.2-2zm-33.54-3.26l-.2 2-22.35-2.18.2-2zm-33.53-3.25l-.2 1.98-11.17-1.1.2-1.98z"/><path d="M562.12 1179.1l-.2 2-.95-.1.03-1v-.4l-.03-.6zM1179 1240l-19.65 9.2-.85-1.83 16.6-7.75-14.8-10.8 1.18-1.6z"/><use xlink:href="#O" transform="matrix(1,0,0,1,1005.1088959837282,1217.5552331294452) translate(0 14.4)"/><path d="M1177.85 1238.28l-.92 1.77-9.03-4.67.92-1.78zm-18.05-9.35l-.92 1.78-18.05-9.34.92-1.77zm-27.07-14l-.92 1.76-18.03-9.35.92-1.78zm-27.07-14.03l-.92 1.78-18.04-9.35.92-1.77zm-27.06-14.02l-.92 1.78-18.05-9.34.92-1.78zm-27.07-14l-.92 1.76-18.04-9.34.92-1.78zm-27.07-14.03l-.92 1.78-18.05-9.34.9-1.8zm-27.07-14l-.93 1.76-7.6-3.93h4.34zm-54.14-28.04l-.92 1.78-18.05-9.34.9-1.78zm-27.07-14l-.93 1.77-18.05-9.35.92-1.77zm-27.08-14.03l-.92 1.78-18.05-9.34.92-1.77zm-27.07-14l-.92 1.76-18.04-9.34.9-1.8zm-27.07-14.03l-.92 1.78-18.04-9.35.92-1.77zm-27.06-14l-.92 1.76-18.05-9.34.92-1.78zm-45.68-23.66l1.18-1.35 2.52-1.05 2.7.18 1.1.46 2.1 1.8 1.03 2.53-.18 2.68-.06.13 8.2 4.25-.9 1.8-9.85-5.1.62-1.53.12-1.9-.68-1.65-1.47-1.27-.53-.2-1.9-.14-1.65.7-1.9 2.18-9.05-4.7.92-1.77zm-16-8.3l-.93 1.78-16.7-8.65.9-1.77zm-25.1-12.98l-.9 1.78-16.72-8.66.92-1.77zm-25.06-12.98l-.92 1.77-16.72-8.66.92-1.78zm-25.08-13l-.92 1.8-16.7-8.67.9-1.77zm-25.07-12.97l-.92 1.78-16.7-8.66.9-1.78zm-25.07-12.98l-.92 1.77-16.72-8.65.92-1.8zm-25.08-13l-.92 1.8-16.72-8.67.92-1.77zM570.7 923.9l-.9 1.78-8.37-4.33.92-1.78z"/><path d="M562.37 919.58l-.92 1.78-.48-.25.03-1.1v-.4l-.03-.74zM1179 1240l-21.66 1.22-.1-2 18.27-1.03-9.7-15.53 1.7-1.06z"/><use xlink:href="#M" transform="matrix(1,0,0,1,916.228066683328,1121.0721395287771) translate(0 14.4)"/><path d="M536.74 1123.3l-7.2 6.77-1.37-1.45 7.2-6.78zm21.6-20.35l-14.4 13.56-1.37-1.44 14.4-13.56zm21.6-20.34l-14.4 13.57-1.37-1.45 14.4-13.56zm21.6-20.33l-14.4 13.56-1.37-1.45 14.4-13.56zm21.6-20.34l-14.4 13.56-1.37-1.46 14.4-13.56zm21.6-20.34l-14.4 13.55-1.36-1.45 14.4-13.56zm21.6-20.35l-14.4 13.56-1.36-1.44 14.4-13.56zm29.3-27.57l-8.2 7.7-2.32-1.56-1.7-.25-1.7.5-.7.53-1.03 1.52-.26 1.7.5 1.7 1.15 1.56-7.85 7.4-1.37-1.46 6.55-6.18-.3-.4-.73-2.47.38-2.6 1.46-2.18 1.27-.93 2.47-.74 2.6.38 1.37.93 7.02-6.6zm22.8-21.48l-15.2 14.32-1.37-1.46 15.2-14.32zm22.82-21.48l-15.2 14.32-1.38-1.46 15.2-14.32zm22.8-21.48l-15.2 14.32-1.37-1.46 15.2-14.32zm22.82-21.48l-15.2 14.32-1.38-1.46 15.2-14.32zm22.8-21.48l-15.2 14.32-1.37-1.46 15.22-14.32zm7.62-7.16l-1.38-1.46 8.68-8.17h2.9zm38.02-35.8l-4.87 4.57h-2.9l6.4-6.04zm22.8-21.48l-15.2 14.32-1.37-1.46 15.2-14.32zm22.82-21.48l-15.2 14.32-1.38-1.46 15.2-14.32zm22.8-21.48l-15.2 14.32-1.37-1.46 15.2-14.32zm15.22-14.32l-7.6 7.16-1.38-1.46 7.6-7.16z"/><path d="M939 743.13v.42l.04.93-1.47-1.36 1.47-1.4zM535.48 1110.3l-5.1 17.6 17.88-4.02.43 1.95-21.17 4.76 6.03-20.85z"/><use xlink:href="#N" transform="matrix(1,0,0,1,785.0253439452731,827.8942406104948) translate(0 14.4)"/><path d="M572 915.95l-8.93 4.2-.85-1.83 8.94-4.18zm26.83-12.54l-17.88 8.37-.85-1.8 17.88-8.38zm26.82-12.54l-17.88 8.36-.85-1.8 17.88-8.37zm26.8-12.55l-17.87 8.38-.84-1.82 17.88-8.36zm26.83-12.54l-17.88 8.37-.85-1.8 17.88-8.38zm26.82-12.54l-17.88 8.36-.85-1.8 17.88-8.38zm26.82-12.55l-17.88 8.36-.85-1.8 17.87-8.37zm8.94-4.18l-.85-1.83 4.12-1.92h4.7zm71.5-33.47L796 811.15h-.62l-.74-1.57 17.88-8.36zm26.83-12.55l-17.9 8.36-.84-1.8 17.88-8.37zm26.8-12.55l-17.87 8.37-.85-1.8 17.88-8.38zm26.82-12.55l-17.88 8.37-.84-1.8 17.87-8.38zm26.82-12.54l-17.88 8.36-.85-1.8 17.9-8.37zm17.88-8.37l-8.94 4.18-.85-1.8 8.94-4.2z"/><path d="M939 743.13v.42l.03.68-.54.25-.85-1.8 1.38-.66zM574.88 903.2l-10.32 15.13 18.22 1.77-.2 2L561 920l12.23-17.9z"/><use xlink:href="#N" transform="matrix(1,0,0,1,718.0579966272925,811.1529126504378) translate(0 14.4)"/><path d="M1341.98 1240.2l177.04 38.88" stroke="#000" stroke-width="2" fill="none"/><path d="M1342.22 1239.24l-.43 1.96-.83-.18.03-1v-.42l-.03-.63zM1520 1278.28v1.97h2.86l-.14.67-3.94-.86.43-1.96zM978.9 1928.6l-1.3 1.5-7.56-6.62 1.32-1.5zm-15.1-13.24l-1.3 1.5-15.1-13.23 1.3-1.5zm-22.64-19.85l-1.3 1.52-15.1-13.23 1.3-1.52zm-22.64-19.83l-1.32 1.5-15.1-13.23 1.32-1.5zm-22.65-19.85l-1.3 1.5-15.1-13.23 1.3-1.5zm-22.64-19.84l-1.32 1.5-15.1-13.23 1.33-1.5zm-22.65-19.85l-1.32 1.5-15.1-13.23 1.33-1.5zm-22.64-19.85l-1.32 1.5-15.1-13.22 1.32-1.5zm-22.65-19.84l-1.33 1.5-4.52-3.96h3.04zm-27.46-24.06h-3.03l-8.57-7.5 1.32-1.52zM760 1736.75l-1.32 1.5-15.1-13.23 1.32-1.5zm-22.64-19.85l-1.32 1.5-15.1-13.23 1.32-1.5zm-22.65-19.85l-1.3 1.5-15.1-13.22 1.3-1.5zm-22.64-19.84l-1.3 1.5-15.1-13.22 1.3-1.5zm-22.64-19.84l-1.32 1.5-15.1-13.22 1.32-1.5zm-22.65-19.84l-1.3 1.5-15.1-13.23 1.3-1.5zm-22.64-19.85l-1.32 1.5-15.1-13.23 1.33-1.5zm-22.65-19.84l-1.32 1.5-15.1-13.23 1.33-1.5zm-22.64-19.85l-1.32 1.5-15.1-13.23 1.32-1.5zm-22.65-19.85l-1.33 1.5-15.1-13.22 1.32-1.5zm-22.65-19.84l-1.32 1.5-7.55-6.62 1.32-1.5z"/><path d="M979.04 1928.7l-.04 1.3v.4l.04.96-1.47-1.28 1.32-1.5zM545.3 1535.23l-.38 1.96-18-3.38 5.7 17.4-1.9.62-6.75-20.6z"/><use xlink:href="#N" transform="matrix(1,0,0,1,736.1464041197569,1752.3798568776915) translate(0 14.4)"/><path d="M1140 2080c0 33.14-35.82 60-80 60s-80-26.86-80-60 35.82-60 80-60 80 26.86 80 60z" stroke="#000" stroke-width="2" fill="#fff"/><use xlink:href="#F" transform="matrix(1,0,0,1,980,2020) translate(50.58 40.65)"/><use xlink:href="#P" transform="matrix(1,0,0,1,980,2020) translate(19.029999999999994 62.25)"/><use xlink:href="#K" transform="matrix(1,0,0,1,980,2020) translate(99.98 62.25)"/><use xlink:href="#Q" transform="matrix(1,0,0,1,980,2020) translate(60.08 83.85000000000001)"/><path d="M979.05 2078.6l-1.46 1.35-6.92-7.46 1.47-1.37zm-13.8-14.93l-1.47 1.36-13.8-14.9 1.46-1.37zm-20.72-22.37l-1.46 1.36-13.8-14.92 1.46-1.35zm-20.7-22.37l-1.47 1.36-13.8-14.93L910 2004zm-20.72-22.37l-1.46 1.35-13.8-14.9 1.46-1.36zm-20.7-22.38l-1.47 1.36-13.8-14.9 1.46-1.37zm-20.7-22.37l-1.48 1.37-13.8-14.9 1.46-1.37zm-20.72-22.36l-1.47 1.36-13.8-14.92 1.47-1.36zm-20.72-22.37l-1.46 1.36-8.42-9.1h2.72zm-27.16-29.34h-2.72l-6.1-6.6 1.46-1.35zm-14.26-15.4l-1.47 1.35-13.8-14.9 1.46-1.37zm-20.7-22.38l-1.48 1.36-13.8-14.9 1.46-1.36zm-20.72-22.37l-1.47 1.36-13.8-14.92 1.46-1.36zm-20.72-22.37l-1.46 1.36-13.8-14.9 1.46-1.37zm-20.7-22.37l-1.48 1.36-13.8-14.92 1.46-1.36zm-20.72-22.37l-1.47 1.36-13.8-14.9 1.47-1.37zm-20.7-22.37l-1.48 1.35-13.8-14.92 1.46-1.36zm-20.72-22.38l-1.47 1.36-13.82-14.92 1.47-1.36zm-20.72-22.37l-1.46 1.35-13.8-14.9 1.46-1.37zm-20.7-22.38l-1.48 1.36-13.8-14.9 1.46-1.37zm-20.72-22.37l-1.47 1.36-13.8-14.92 1.46-1.35zm-20.7-22.37l-1.48 1.36-13.8-14.93 1.46-1.36zm-20.72-22.37l-1.47 1.36-13.8-14.92 1.46-1.36zm-20.72-22.38l-1.46 1.36-13.8-14.9 1.46-1.37zm-20.7-22.37l-1.47 1.37-6.9-7.46 1.47-1.35z"/><path d="M979.04 2078.58l-.04 1.4v.42l.05 1.12-1.48-1.6 1.47-1.35zM500.8 1547.2l-.6 1.92-17.53-5.24 3.87 17.9-1.96.42L480 1541z"/><use xlink:href="#N" transform="matrix(1,0,0,1,749.2404729801626,1877.7313014716858) translate(0 14.4)"/><path d="M1520.06 701.64l-179.6 119.25-534.36 223.23-.65-1.3-1.37-1.42-1.75-.58-1.98.3-.33.17-1.42 1.36-.6 1.75.46 2.92-54.06 22.6-.65-1.32-1.37-1.4-1.75-.6-2 .3-.3.16-1.43 1.38-.6 1.75.46 2.9-185.03 77.3-.77-1.85 183.58-76.7-.28-1.84.9-2.66 2-1.93.87-.43 2.78-.43 2.67.9 1.85 1.9 50.93-21.26-.3-1.85.9-2.67 2-1.93.88-.44 2.78-.43 2.68.9 1.85 1.9 532.5-222.46 179.42-119.13z"/><path d="M551.75 1150.4l-.7.28-.12-.17-1.15-1.46 1.2-.5zM1523.4 699.42l-3.36 2.23-1.1-1.67 3.35-2.22z"/><path d="M1521.78 699.1l-.3 1.98L1139.9 641h-279.6L542.6 880.24l-1.2-1.6L859.67 639h280.4z"/><path d="M542.6 880.23l-.66.5-1.53-1.36 1-.74zM1525.74 699.73l-.32 1.97-3.97-.62.3-1.98z"/><path d="M562 587.02h718l239.44 112.8" stroke="#000" stroke-width="2" fill="none"/><path d="M562.03 588.02h-1.06l.03-1v-.4l-.03-.6h1.06z"/><path d="M1519.4 699.8l3.65 1.73M562 400h698l259.34 297.6" stroke="#000" stroke-width="2" fill="none"/><path d="M562.03 401h-1.06l.03-1v-.4l-.03-.6h1.06zM1522.4 700.25l-1.18 1.02-.9-1.02zm-1.16-2H1520v1.62l-1.43-1.64 1.5-1.3z"/><path d="M140.4 997.33l258.2-596.4" stroke="#000" stroke-width="2" fill="none"/><path d="M141.33 997.7l-1.6 3.7-1.84-.8.14-.35H140v-2h-1.1l.6-1.34zM399 400v.4l.03.73-1.36-.6 1.4-3.24z"/><path d="M140.53 997.4l257.94-409.53" stroke="#000" stroke-width="2" fill="none"/><path d="M139.25 1001.32l-1.7-1.06h2.37zm2.14-3.4l-1.4 2.2v-1.87h-1.18l.88-1.4zM399 587v.42l.03.83-1.42-.9 1.46-2.3z"/><path d="M140.96 999.95l257.08-79.65" stroke="#000" stroke-width="2" fill="none"/><path d="M141.28 1000.9l-3.85 1.2-.57-1.85H140v-1.05l.68-.2zM399 920v.4l.03.64-.7.22-.6-1.9 1.3-.42z"/><path d="M140.82 1000.57l257.36 178.86M140.84 1000.6l-.84-.6" stroke="#000" stroke-width="2" fill="none"/><path d="M399.04 1178.8l-.04 1.2v.4l.03.84-1.44-1 1.13-1.65z"/><path d="M140.48 1001.13l258.04 478" stroke="#000" stroke-width="2" fill="none"/><path d="M141.37 1000.68l-1.76.95-.74-1.38H140v-2h-2.22l-.1-.16 1.77-.96zM399 1480v.4l.07 1.84-1.44-2.67 1.4-.76z"/><path d="M2220 245c0-2.76 2.24-5 5-5h850c2.76 0 5 2.24 5 5v922.98c0 2.76-2.24 5-5 5h-850c-2.76 0-5-2.24-5-5z" stroke="#000" stroke-width="2" fill="none"/><use xlink:href="#l" transform="matrix(1,0,0,1,2228,248) translate(365.625 15.6)"/><use xlink:href="#q" transform="matrix(1,0,0,1,2228,248) translate(425.475 15.6)"/><path d="M2119.75 672.73c0 10.9-8.84 19.75-19.75 19.75-10.9 0-19.75-8.84-19.75-19.75 0-10.9 8.84-19.75 19.75-19.75 10.9 0 19.75 8.84 19.75 19.75z" stroke="#000" stroke-width="2" fill="#fff"/><path d="M2060 657.98c0-2.76 2.24-5 5-5h70c2.76 0 5 2.24 5 5v148c0 2.76-2.24 5-5 5h-70c-2.76 0-5-2.24-5-5z" fill="none"/><path d="M2100 692.48v50.3c0 2.76 1.2 6.9 2.67 9.23L2140 811m-40-63.2l-40 63.2m0-98.75h80" stroke="#000" stroke-width="2" fill="none"/><use xlink:href="#l" transform="matrix(1,0,0,1,1980,810.9808962751711) translate(74.075 14.6)"/><use xlink:href="#m" transform="matrix(1,0,0,1,1980,810.9808962751711) translate(133.925 14.6)"/><path d="M3679.75 672.73c0 10.9-8.84 19.75-19.75 19.75-10.9 0-19.75-8.84-19.75-19.75 0-10.9 8.84-19.75 19.75-19.75 10.9 0 19.75 8.84 19.75 19.75z" stroke="#000" stroke-width="2" fill="#fff"/><path d="M3620 657.98c0-2.76 2.24-5 5-5h70c2.76 0 5 2.24 5 5v148c0 2.76-2.24 5-5 5h-70c-2.76 0-5-2.24-5-5z" fill="none"/><path d="M3660 692.48v50.3c0 2.76 1.2 6.9 2.67 9.23L3700 811m-40-63.2l-40 63.2m0-98.75h80" stroke="#000" stroke-width="2" fill="none"/><g><use xlink:href="#o" transform="matrix(1,0,0,1,3540,810.9808962751711) translate(78.05 14.6)"/><use xlink:href="#p" transform="matrix(1,0,0,1,3540,810.9808962751711) translate(132.95 14.6)"/></g><path d="M1140 1630c0 33.14-35.82 60-80 60s-80-26.86-80-60 35.82-60 80-60 80 26.86 80 60z" stroke="#000" stroke-width="2" fill="#fff"/><g><use xlink:href="#R" transform="matrix(1,0,0,1,980,1570) translate(25.104999999999997 51.9)"/><use xlink:href="#S" transform="matrix(1,0,0,1,980,1570) translate(80.055 51.9)"/><use xlink:href="#T" transform="matrix(1,0,0,1,980,1570) translate(51.529999999999994 73.5)"/></g><path d="M977.63 1628.44l-.68 1.9-9.23-3.33.68-1.87zm-18.46-6.62l-.68 1.88-18.47-6.62.68-1.88zm-27.7-9.94l-.67 1.9-18.46-6.64.68-1.88zm-27.68-9.93l-.7 1.88-18.45-6.62.68-1.88zm-27.7-9.94l-.68 1.9-18.46-6.63.68-1.88zm-27.7-9.93l-.67 1.9-18.46-6.64.68-1.88zm-83.06-29.8l-.4 1.1h-2.44l-16.3-5.85.68-1.88zm-27.7-9.94l-.67 1.88-18.46-6.6.7-1.9zm-27.68-9.94l-.68 1.87-18.46-6.62.68-1.88zm-27.7-9.95l-.67 1.9-18.47-6.64.68-1.87zm-27.68-9.93l-.68 1.88-18.46-6.62.68-1.9zm-27.7-9.94l-.67 1.88-18.45-6.62.68-1.88zm-27.68-9.93l-.68 1.88-18.46-6.63.68-1.88zm-27.7-9.94l-.67 1.9-9.23-3.32.68-1.88z"/><path d="M562.3 1479.4l-.67 1.9-.66-.25.03-1.04v-.4l-.03-.67zM979 1630l-21.3 4.1-.38-1.98 17.98-3.45-11.68-14.1 1.54-1.27z"/><g><use xlink:href="#M" transform="matrix(1,0,0,1,741.6031175838755,1553.3697794137167) translate(0 14.4)"/></g><path d="M2560 392.98c0 33.14-35.82 60-80 60s-80-26.86-80-60 35.82-60 80-60 80 26.86 80 60z" stroke="#000" stroke-width="2" fill="#fff"/><g><use xlink:href="#C" transform="matrix(1,0,0,1,2400,332.98089627517106) translate(19.529999999999994 51.9)"/><use xlink:href="#D" transform="matrix(1,0,0,1,2400,332.98089627517106) translate(75.48 51.9)"/><use xlink:href="#E" transform="matrix(1,0,0,1,2400,332.98089627517106) translate(54.505 73.5)"/></g><path d="M2560 1072.98c0 33.14-35.82 60-80 60s-80-26.86-80-60 35.82-60 80-60 80 26.86 80 60z" stroke="#000" stroke-width="2" fill="#fff"/><g><use xlink:href="#x" transform="matrix(1,0,0,1,2400,1012.9808962751711) translate(19.029999999999994 63.15)"/><use xlink:href="#y" transform="matrix(1,0,0,1,2400,1012.9808962751711) translate(99.98 63.15)"/></g><path d="M3000 742.98c0 33.14-35.82 60-80 60s-80-26.86-80-60 35.82-60 80-60 80 26.86 80 60z" stroke="#000" stroke-width="2" fill="#fff"/><g><use xlink:href="#C" transform="matrix(1,0,0,1,2840,682.9808962751711) translate(23.029999999999994 51.9)"/><use xlink:href="#U" transform="matrix(1,0,0,1,2840,682.9808962751711) translate(78.98 51.9)"/><use xlink:href="#V" transform="matrix(1,0,0,1,2840,682.9808962751711) translate(56.029999999999994 73.5)"/></g><path d="M3619 713.28l-617 29.65" stroke="#000" stroke-width="2" fill="none"/><path d="M3620 713.23h3l.04.86-4.02.18-.1-2 1.08-.05zM3002.07 743.93l-1.1.05.03-1v-.4l-.03-.6 1-.05zM2863.75 696.7l-1.42 1.4-7.17-7.22 1.42-1.4zm-14.35-14.46l-1.4 1.4-14.36-14.46 1.42-1.4zm-21.52-21.7l-1.42 1.4-14.35-14.45 1.43-1.42zm-21.52-21.7l-1.42 1.42-14.35-14.46 1.4-1.4zm-21.53-21.68l-1.42 1.4-14.34-14.46 1.42-1.4zm-21.52-21.7l-1.4 1.4-8.76-8.8h2.82zm-28.77-29h-2.82l-5.7-5.75 1.43-1.4zm-14.27-14.4l-1.42 1.42-14.35-14.46 1.4-1.4zm-21.53-21.68l-1.42 1.4-14.33-14.45 1.42-1.4zm-21.52-21.7l-1.4 1.42-14.36-14.47 1.42-1.4zm-21.5-21.7l-1.43 1.42-14.35-14.46 1.42-1.4zm-21.54-21.68l-1.42 1.4-14.35-14.45 1.4-1.4zm-21.52-21.7l-1.42 1.4-14.35-14.45 1.42-1.4zm-21.53-21.7l-1.4 1.42-14.36-14.46 1.42-1.4zm-21.5-21.68l-1.43 1.4-7.18-7.22 1.4-1.4z"/><path d="M2562.43 393l-1.42 1.4V392.6l-.04-1.06zM2864.33 698.7l-21-5.48.5-1.94 17.73 4.62-4.5-17.75 1.95-.5z"/><g><use xlink:href="#M" transform="matrix(1,0,0,1,2689.8856753104737,566.4560259204604) translate(0 14.4)"/></g><path d="M2569.7 1066.37l-7.3 6.67-1.34-1.47 7.3-6.68zm21.9-20.03l-14.6 13.35-1.34-1.5 14.6-13.34zm21.9-20.03l-14.6 13.36-1.36-1.48 14.6-13.35zm21.88-20.02l-14.6 13.35-1.35-1.48 14.6-13.35zm21.88-20.03l-14.6 13.35-1.34-1.48 14.6-13.35zm21.9-20.03l-14.6 13.35-1.35-1.48 14.6-13.36zm21.88-20.03l-14.6 13.34-1.34-1.47 14.6-13.36zm21.9-20.04l-14.6 13.35-1.35-1.46 14.58-13.36zm21.88-20.03l-14.6 13.35-1.34-1.47 14.6-13.35zm21.9-20.03l-14.6 13.35-1.35-1.47 14.6-13.36zm43.77-40.06l-14.6 13.35-1.36-1.48 14.6-13.36zm21.87-20.03l-14.6 13.36-1.34-1.47 14.6-13.37zm21.9-20.02l-14.6 13.35-1.35-1.47 14.6-13.36zm14.6-13.36l-7.3 6.68-1.36-1.47 7.3-6.68z"/><path d="M2562.43 1073.03l-1.47 1.35.04-1.4v-.4l-.04-.92.12-.1zM2863.2 811.4l-1.9-.57 5.32-17.52-17.9 3.77-.43-1.95 21.22-4.46z"/><g><use xlink:href="#M" transform="matrix(1,0,0,1,2725.872346501789,861.9414550205508) translate(0 14.4)"/></g><path d="M2140.58 713.32l257.84 358.85" stroke="#000" stroke-width="2" fill="none"/><path d="M2141.4 712.76l-1.6 1.17-.5-.7h.7v-2h-2.15l-.4-.57 1.6-1.17zM2399 1072.97v.4l.06 1.4-1.47-2.04 1.44-1.04z"/><path d="M2140.63 711.73l257.74-317.97M2140.65 711.7l-.65.8" stroke="#000" stroke-width="2" fill="none"/><path d="M2399 392.97v.4l.04.96-1.46-1.18 1.47-1.82z"/><defs><path fill="#b2b2b2" d="M238-95c0 69-44 99-111 99C63 4 22-25 22-93v-155h51v151c-1 38 19 59 55 60 90 1 49-130 58-211h52v153" id="W"/><path fill="#b2b2b2" d="M137-138c1-29-70-34-71-4 15 46 118 7 119 86 1 83-164 76-172 9l43-7c4 19 20 25 44 25 33 8 57-30 24-41C81-84 22-81 20-136c-2-80 154-74 161-7" id="X"/><path fill="#b2b2b2" d="M185-48c-13 30-37 53-82 52C43 2 14-33 14-96s30-98 90-98c62 0 83 45 84 108H66c0 31 8 55 39 56 18 0 30-7 34-22zm-45-69c5-46-57-63-70-21-2 6-4 13-4 21h74" id="Y"/><g id="a"><use transform="matrix(0.0728395061728395,0,0,0.0728395061728395,0,0)" xlink:href="#W"/><use transform="matrix(0.0728395061728395,0,0,0.0728395061728395,18.86543209876543,0)" xlink:href="#X"/><use transform="matrix(0.0728395061728395,0,0,0.0728395061728395,33.43333333333333,0)" xlink:href="#Y"/></g><path fill="#b2b2b2" d="M67-125c0 53 21 87 73 88 37 1 54-22 65-47l45 17C233-25 199 4 140 4 58 4 20-42 15-125 8-235 124-281 211-232c18 10 29 29 36 50l-46 12c-8-25-30-41-62-41-52 0-71 34-72 86" id="Z"/><path fill="#b2b2b2" d="M133-34C117-15 103 5 69 4 32 3 11-16 11-54c-1-60 55-63 116-61 1-26-3-47-28-47-18 1-26 9-28 27l-52-2c7-38 36-58 82-57s74 22 75 68l1 82c-1 14 12 18 25 15v27c-30 8-71 5-69-32zm-48 3c29 0 43-24 42-57-32 0-66-3-65 30 0 17 8 27 23 27" id="aa"/><g id="b"><use transform="matrix(0.0728395061728395,0,0,0.0728395061728395,0,0)" xlink:href="#Z"/><use transform="matrix(0.0728395061728395,0,0,0.0728395061728395,18.86543209876543,0)" xlink:href="#aa"/><use transform="matrix(0.0728395061728395,0,0,0.0728395061728395,33.43333333333333,0)" xlink:href="#X"/><use transform="matrix(0.0728395061728395,0,0,0.0728395061728395,48.00123456790123,0)" xlink:href="#Y"/></g><path fill="#b2b2b2" d="M24-248c120-7 223 5 221 122C244-46 201 0 124 0H24v-248zM76-40c74 7 117-18 117-86 0-67-45-88-117-82v168" id="ab"/><path fill="#b2b2b2" d="M25-224v-37h50v37H25zM25 0v-190h50V0H25" id="ac"/><path fill="#b2b2b2" d="M195-6C206 82 75 100 31 46c-4-6-6-13-8-21l49-6c3 16 16 24 34 25 40 0 42-37 40-79-11 22-30 35-61 35-53 0-70-43-70-97 0-56 18-96 73-97 30 0 46 14 59 34l2-30h47zm-90-29c32 0 41-27 41-63 0-35-9-62-40-62-32 0-39 29-40 63 0 36 9 62 39 62" id="ad"/><path fill="#b2b2b2" d="M135-150c-39-12-60 13-60 57V0H25l-1-190h47c2 13-1 29 3 40 6-28 27-53 61-41v41" id="ae"/><path fill="#b2b2b2" d="M220-157c-53 9-28 100-34 157h-49v-107c1-27-5-49-29-50C55-147 81-57 75 0H25l-1-190h47c2 12-1 28 3 38 10-53 101-56 108 0 13-22 24-43 59-42 82 1 51 116 57 194h-49v-107c-1-25-5-48-29-50" id="af"/><g id="c"><use transform="matrix(0.0728395061728395,0,0,0.0728395061728395,0,0)" xlink:href="#ab"/><use transform="matrix(0.0728395061728395,0,0,0.0728395061728395,18.86543209876543,0)" xlink:href="#ac"/><use transform="matrix(0.0728395061728395,0,0,0.0728395061728395,26.14938271604938,0)" xlink:href="#aa"/><use transform="matrix(0.0728395061728395,0,0,0.0728395061728395,40.717283950617286,0)" xlink:href="#ad"/><use transform="matrix(0.0728395061728395,0,0,0.0728395061728395,56.66913580246913,0)" xlink:href="#ae"/><use transform="matrix(0.0728395061728395,0,0,0.0728395061728395,66.86666666666666,0)" xlink:href="#aa"/><use transform="matrix(0.0728395061728395,0,0,0.0728395061728395,81.43456790123457,0)" xlink:href="#af"/></g><path fill="#b2b2b2" d="M14-72v-43h91v43H14" id="ag"/><use transform="matrix(0.0728395061728395,0,0,0.0728395061728395,0,0)" xlink:href="#ag" id="d"/><path fill="#b2b2b2" d="M199 0l-22-63H83L61 0H9l90-248h61L250 0h-51zm-33-102l-36-108c-10 38-24 72-36 108h72" id="ah"/><path fill="#b2b2b2" d="M135-194c53 0 70 44 70 98 0 56-19 98-73 100-31 1-45-17-59-34 3 33 2 69 2 105H25l-1-265h48c2 10 0 23 3 31 11-24 29-35 60-35zM114-30c33 0 39-31 40-66 0-38-9-64-40-64-56 0-55 130 0 130" id="ai"/><g id="e"><use transform="matrix(0.0728395061728395,0,0,0.0728395061728395,0,0)" xlink:href="#ah"/><use transform="matrix(0.0728395061728395,0,0,0.0728395061728395,18.86543209876543,0)" xlink:href="#ai"/><use transform="matrix(0.0728395061728395,0,0,0.0728395061728395,34.81728395061728,0)" xlink:href="#ai"/></g><path fill="#b2b2b2" d="M233-177c-1 41-23 64-60 70L243 0h-38l-65-103H63V0H30v-248c88 3 205-21 203 71zM63-129c60-2 137 13 137-47 0-61-80-42-137-45v92" id="aj"/><path fill="#b2b2b2" d="M24-231v-30h32v30H24zM24 0v-190h32V0H24" id="ak"/><path fill="#b2b2b2" d="M24 0v-261h32V0H24" id="al"/><path fill="#b2b2b2" d="M100-194c63 0 86 42 84 106H49c0 40 14 67 53 68 26 1 43-12 49-29l28 8c-11 28-37 45-77 45C44 4 14-33 15-96c1-61 26-98 85-98zm52 81c6-60-76-77-97-28-3 7-6 17-6 28h103" id="am"/><path fill="#b2b2b2" d="M179-190L93 31C79 59 56 82 12 73V49c39 6 53-20 64-50L1-190h34L92-34l54-156h33" id="an"/><g id="f"><use transform="matrix(0.04248971193415638,0,0,0.04248971193415638,0,0)" xlink:href="#aj"/><use transform="matrix(0.04248971193415638,0,0,0.04248971193415638,11.004835390946502,0)" xlink:href="#ak"/><use transform="matrix(0.04248971193415638,0,0,0.04248971193415638,14.361522633744855,0)" xlink:href="#al"/><use transform="matrix(0.04248971193415638,0,0,0.04248971193415638,17.71820987654321,0)" xlink:href="#am"/><use transform="matrix(0.04248971193415638,0,0,0.04248971193415638,26.216152263374486,0)" xlink:href="#an"/></g><path fill="#b2b2b2" d="M30 0v-248h187v28H63v79h144v27H63v87h162V0H30" id="ao"/><path fill="#b2b2b2" d="M108 0H70L1-190h34L89-25l56-165h34" id="ap"/><path fill="#b2b2b2" d="M141-36C126-15 110 5 73 4 37 3 15-17 15-53c-1-64 63-63 125-63 3-35-9-54-41-54-24 1-41 7-42 31l-33-3c5-37 33-52 76-52 45 0 72 20 72 64v82c-1 20 7 32 28 27v20c-31 9-61-2-59-35zM48-53c0 20 12 33 32 33 41-3 63-29 60-74-43 2-92-5-92 41" id="aq"/><path fill="#b2b2b2" d="M117-194c89-4 53 116 60 194h-32v-121c0-31-8-49-39-48C34-167 62-67 57 0H25l-1-190h30c1 10-1 24 2 32 11-22 29-35 61-36" id="ar"/><path fill="#b2b2b2" d="M135-143c-3-34-86-38-87 0 15 53 115 12 119 90S17 21 10-45l28-5c4 36 97 45 98 0-10-56-113-15-118-90-4-57 82-63 122-42 12 7 21 19 24 35" id="as"/><g id="g"><use transform="matrix(0.04248971193415638,0,0,0.04248971193415638,0,0)" xlink:href="#ao"/><use transform="matrix(0.04248971193415638,0,0,0.04248971193415638,10.19753086419753,0)" xlink:href="#ap"/><use transform="matrix(0.04248971193415638,0,0,0.04248971193415638,17.845679012345677,0)" xlink:href="#aq"/><use transform="matrix(0.04248971193415638,0,0,0.04248971193415638,26.343621399176953,0)" xlink:href="#ar"/><use transform="matrix(0.04248971193415638,0,0,0.04248971193415638,34.84156378600823,0)" xlink:href="#as"/></g><path fill="#b2b2b2" d="M32 76v-337h29V76H32" id="at"/><use transform="matrix(0.04248971193415638,0,0,0.04248971193415638,0,0)" xlink:href="#at" id="h"/><path fill="#b2b2b2" d="M205 0l-28-72H64L36 0H1l101-248h38L239 0h-34zm-38-99l-47-123c-12 45-31 82-46 123h93" id="au"/><path fill="#b2b2b2" d="M115-194c55 1 70 41 70 98S169 2 115 4C84 4 66-9 55-30l1 105H24l-1-265h31l2 30c10-21 28-34 59-34zm-8 174c40 0 45-34 45-75s-6-73-45-74c-42 0-51 32-51 76 0 43 10 73 51 73" id="av"/><path fill="#b2b2b2" d="M114-163C36-179 61-72 57 0H25l-1-190h30c1 12-1 29 2 39 6-27 23-49 58-41v29" id="aw"/><g id="i"><use transform="matrix(0.04248971193415638,0,0,0.04248971193415638,0,0)" xlink:href="#au"/><use transform="matrix(0.04248971193415638,0,0,0.04248971193415638,10.19753086419753,0)" xlink:href="#av"/><use transform="matrix(0.04248971193415638,0,0,0.04248971193415638,18.695473251028805,0)" xlink:href="#aw"/><use transform="matrix(0.04248971193415638,0,0,0.04248971193415638,23.751748971193415,0)" xlink:href="#ak"/><use transform="matrix(0.04248971193415638,0,0,0.04248971193415638,27.10843621399177,0)" xlink:href="#al"/></g><path fill="#b2b2b2" d="M27 0v-27h64v-190l-56 39v-29l58-41h29v221h61V0H27" id="ax"/><path fill="#b2b2b2" d="M134-131c28 9 52 24 51 62-1 50-34 73-85 73S17-19 16-69c0-36 21-54 49-61-75-25-45-126 34-121 46 3 78 18 79 63 0 33-17 51-44 57zm-34-11c31 1 46-15 46-44 0-28-17-43-47-42-29 0-46 13-45 42 1 28 16 44 46 44zm1 122c35 0 51-18 51-52 0-30-18-46-53-46-33 0-51 17-51 47 0 34 19 51 53 51" id="ay"/><path fill="#b2b2b2" d="M68-38c1 34 0 65-14 84H32c9-13 17-26 17-46H33v-38h35" id="az"/><g id="j"><use transform="matrix(0.04248971193415638,0,0,0.04248971193415638,0,0)" xlink:href="#ax"/><use transform="matrix(0.04248971193415638,0,0,0.04248971193415638,8.497942386831275,0)" xlink:href="#ay"/><use transform="matrix(0.04248971193415638,0,0,0.04248971193415638,16.99588477366255,0)" xlink:href="#az"/></g><path fill="#b2b2b2" d="M101-251c82-7 93 87 43 132L82-64C71-53 59-42 53-27h129V0H18c2-99 128-94 128-182 0-28-16-43-45-43s-46 15-49 41l-32-3c6-41 34-60 81-64" id="aA"/><path fill="#b2b2b2" d="M101-251c68 0 85 55 85 127S166 4 100 4C33 4 14-52 14-124c0-73 17-127 87-127zm-1 229c47 0 54-49 54-102s-4-102-53-102c-51 0-55 48-55 102 0 53 5 102 54 102" id="aB"/><path fill="#b2b2b2" d="M99-251c64 0 84 50 84 122C183-37 130 33 47-8c-14-7-20-23-25-40l30-5c6 39 69 39 84 7 9-19 16-44 16-74-10 22-31 35-62 35-49 0-73-33-73-83 0-54 28-83 82-83zm-1 141c31-1 51-18 51-49 0-36-14-67-51-67-34 0-49 23-49 58 0 34 15 58 49 58" id="aC"/><g id="k"><use transform="matrix(0.04248971193415638,0,0,0.04248971193415638,0,0)" xlink:href="#aA"/><use transform="matrix(0.04248971193415638,0,0,0.04248971193415638,8.497942386831275,0)" xlink:href="#aB"/><use transform="matrix(0.04248971193415638,0,0,0.04248971193415638,16.99588477366255,0)" xlink:href="#ax"/><use transform="matrix(0.04248971193415638,0,0,0.04248971193415638,25.493827160493822,0)" xlink:href="#aC"/></g><path d="M30 0v-248h33v221h125V0H30" id="aD"/><path d="M24-231v-30h32v30H24zM24 0v-190h32V0H24" id="aE"/><path d="M115-194c53 0 69 39 70 98 0 66-23 100-70 100C84 3 66-7 56-30L54 0H23l1-261h32v101c10-23 28-34 59-34zm-8 174c40 0 45-34 45-75 0-40-5-75-45-74-42 0-51 32-51 76 0 43 10 73 51 73" id="aF"/><path d="M114-163C36-179 61-72 57 0H25l-1-190h30c1 12-1 29 2 39 6-27 23-49 58-41v29" id="aG"/><path d="M141-36C126-15 110 5 73 4 37 3 15-17 15-53c-1-64 63-63 125-63 3-35-9-54-41-54-24 1-41 7-42 31l-33-3c5-37 33-52 76-52 45 0 72 20 72 64v82c-1 20 7 32 28 27v20c-31 9-61-2-59-35zM48-53c0 20 12 33 32 33 41-3 63-29 60-74-43 2-92-5-92 41" id="aH"/><path d="M179-190L93 31C79 59 56 82 12 73V49c39 6 53-20 64-50L1-190h34L92-34l54-156h33" id="aI"/><g id="l"><use transform="matrix(0.05,0,0,0.05,0,0)" xlink:href="#aD"/><use transform="matrix(0.05,0,0,0.05,10,0)" xlink:href="#aE"/><use transform="matrix(0.05,0,0,0.05,13.949999999999998,0)" xlink:href="#aF"/><use transform="matrix(0.05,0,0,0.05,23.95,0)" xlink:href="#aG"/><use transform="matrix(0.05,0,0,0.05,29.899999999999995,0)" xlink:href="#aH"/><use transform="matrix(0.05,0,0,0.05,39.9,0)" xlink:href="#aG"/><use transform="matrix(0.05,0,0,0.05,45.85,0)" xlink:href="#aI"/></g><path d="M205 0l-28-72H64L36 0H1l101-248h38L239 0h-34zm-38-99l-47-123c-12 45-31 82-46 123h93" id="aJ"/><path d="M115-194c55 1 70 41 70 98S169 2 115 4C84 4 66-9 55-30l1 105H24l-1-265h31l2 30c10-21 28-34 59-34zm-8 174c40 0 45-34 45-75s-6-73-45-74c-42 0-51 32-51 76 0 43 10 73 51 73" id="aK"/><g id="m"><use transform="matrix(0.05,0,0,0.05,0,0)" xlink:href="#aJ"/><use transform="matrix(0.05,0,0,0.05,12,0)" xlink:href="#aK"/><use transform="matrix(0.05,0,0,0.05,22,0)" xlink:href="#aK"/></g><path d="M232-93c-1 65-40 97-104 97C67 4 28-28 28-90v-158h33c8 89-33 224 67 224 102 0 64-133 71-224h33v155" id="aL"/><path d="M135-143c-3-34-86-38-87 0 15 53 115 12 119 90S17 21 10-45l28-5c4 36 97 45 98 0-10-56-113-15-118-90-4-57 82-63 122-42 12 7 21 19 24 35" id="aM"/><path d="M100-194c63 0 86 42 84 106H49c0 40 14 67 53 68 26 1 43-12 49-29l28 8c-11 28-37 45-77 45C44 4 14-33 15-96c1-61 26-98 85-98zm52 81c6-60-76-77-97-28-3 7-6 17-6 28h103" id="aN"/><g id="n"><use transform="matrix(0.05,0,0,0.05,0,0)" xlink:href="#aL"/><use transform="matrix(0.05,0,0,0.05,12.950000000000001,0)" xlink:href="#aM"/><use transform="matrix(0.05,0,0,0.05,21.950000000000003,0)" xlink:href="#aN"/><use transform="matrix(0.05,0,0,0.05,31.950000000000003,0)" xlink:href="#aG"/></g><path d="M140-251c81 0 123 46 123 126C263-46 219 4 140 4 59 4 17-45 17-125s42-126 123-126zm0 227c63 0 89-41 89-101s-29-99-89-99c-61 0-89 39-89 99S79-25 140-24" id="aO"/><path d="M212-179c-10-28-35-45-73-45-59 0-87 40-87 99 0 60 29 101 89 101 43 0 62-24 78-52l27 14C228-24 195 4 139 4 59 4 22-46 18-125c-6-104 99-153 187-111 19 9 31 26 39 46" id="aP"/><g id="o"><use transform="matrix(0.05,0,0,0.05,0,0)" xlink:href="#aO"/><use transform="matrix(0.05,0,0,0.05,14,0)" xlink:href="#aP"/><use transform="matrix(0.05,0,0,0.05,26.950000000000003,0)" xlink:href="#aD"/><use transform="matrix(0.05,0,0,0.05,36.95,0)" xlink:href="#aP"/></g><path d="M30-248c87 1 191-15 191 75 0 78-77 80-158 76V0H30v-248zm33 125c57 0 124 11 124-50 0-59-68-47-124-48v98" id="aQ"/><path d="M33 0v-248h34V0H33" id="aR"/><g id="p"><use transform="matrix(0.05,0,0,0.05,0,0)" xlink:href="#aJ"/><use transform="matrix(0.05,0,0,0.05,12,0)" xlink:href="#aQ"/><use transform="matrix(0.05,0,0,0.05,24,0)" xlink:href="#aR"/></g><path d="M185-189c-5-48-123-54-124 2 14 75 158 14 163 119 3 78-121 87-175 55-17-10-28-26-33-46l33-7c5 56 141 63 141-1 0-78-155-14-162-118-5-82 145-84 179-34 5 7 8 16 11 25" id="aS"/><path d="M108 0H70L1-190h34L89-25l56-165h34" id="aT"/><g id="q"><use transform="matrix(0.05,0,0,0.05,0,0)" xlink:href="#aS"/><use transform="matrix(0.05,0,0,0.05,12,0)" xlink:href="#aN"/><use transform="matrix(0.05,0,0,0.05,22,0)" xlink:href="#aG"/><use transform="matrix(0.05,0,0,0.05,27.950000000000003,0)" xlink:href="#aT"/><use transform="matrix(0.05,0,0,0.05,36.95,0)" xlink:href="#aN"/><use transform="matrix(0.05,0,0,0.05,46.95,0)" xlink:href="#aG"/></g><path d="M100-194c62-1 85 37 85 99 1 63-27 99-86 99S16-35 15-95c0-66 28-99 85-99zM99-20c44 1 53-31 53-75 0-43-8-75-51-75s-53 32-53 75 10 74 51 75" id="aU"/><path d="M177-190C167-65 218 103 67 71c-23-6-38-20-44-43l32-5c15 47 100 32 89-28v-30C133-14 115 1 83 1 29 1 15-40 15-95c0-56 16-97 71-98 29-1 48 16 59 35 1-10 0-23 2-32h30zM94-22c36 0 50-32 50-73 0-42-14-75-50-75-39 0-46 34-46 75s6 73 46 73" id="aV"/><path d="M117-194c89-4 53 116 60 194h-32v-121c0-31-8-49-39-48C34-167 62-67 57 0H25l-1-190h30c1 10-1 24 2 32 11-22 29-35 61-36" id="aW"/><g id="r"><use transform="matrix(0.05,0,0,0.05,0,0)" xlink:href="#aD"/><use transform="matrix(0.05,0,0,0.05,10,0)" xlink:href="#aU"/><use transform="matrix(0.05,0,0,0.05,20,0)" xlink:href="#aV"/><use transform="matrix(0.05,0,0,0.05,30,0)" xlink:href="#aE"/><use transform="matrix(0.05,0,0,0.05,33.95,0)" xlink:href="#aW"/></g><path d="M137 0h-34L2-248h35l83 218 83-218h36" id="aX"/><path d="M206 0h-36l-40-164L89 0H53L-1-190h32L70-26l43-164h34l41 164 42-164h31" id="aY"/><g id="s"><use transform="matrix(0.05,0,0,0.05,0,0)" xlink:href="#aX"/><use transform="matrix(0.05,0,0,0.05,11.65,0)" xlink:href="#aE"/><use transform="matrix(0.05,0,0,0.05,15.600000000000001,0)" xlink:href="#aN"/><use transform="matrix(0.05,0,0,0.05,25.6,0)" xlink:href="#aY"/></g><g id="t"><use transform="matrix(0.05,0,0,0.05,0,0)" xlink:href="#aD"/><use transform="matrix(0.05,0,0,0.05,10,0)" xlink:href="#aU"/><use transform="matrix(0.05,0,0,0.05,20,0)" xlink:href="#aH"/><use transform="matrix(0.05,0,0,0.05,30,0)" xlink:href="#aW"/><use transform="matrix(0.05,0,0,0.05,40,0)" xlink:href="#aM"/></g><g id="u"><use transform="matrix(0.05,0,0,0.05,0,0)" xlink:href="#aX"/><use transform="matrix(0.05,0,0,0.05,11.65,0)" xlink:href="#aE"/><use transform="matrix(0.05,0,0,0.05,15.600000000000001,0)" xlink:href="#aN"/><use transform="matrix(0.05,0,0,0.05,25.6,0)" xlink:href="#aY"/></g><path d="M233-177c-1 41-23 64-60 70L243 0h-38l-65-103H63V0H30v-248c88 3 205-21 203 71zM63-129c60-2 137 13 137-47 0-61-80-42-137-45v92" id="aZ"/><path d="M59-47c-2 24 18 29 38 22v24C64 9 27 4 27-40v-127H5v-23h24l9-43h21v43h35v23H59v120" id="ba"/><g id="v"><use transform="matrix(0.05,0,0,0.05,0,0)" xlink:href="#aZ"/><use transform="matrix(0.05,0,0,0.05,12.950000000000001,0)" xlink:href="#aN"/><use transform="matrix(0.05,0,0,0.05,22.950000000000003,0)" xlink:href="#aM"/><use transform="matrix(0.05,0,0,0.05,31.950000000000003,0)" xlink:href="#aN"/><use transform="matrix(0.05,0,0,0.05,41.95,0)" xlink:href="#aG"/><use transform="matrix(0.05,0,0,0.05,47.900000000000006,0)" xlink:href="#aT"/><use transform="matrix(0.05,0,0,0.05,56.900000000000006,0)" xlink:href="#aH"/><use transform="matrix(0.05,0,0,0.05,66.9,0)" xlink:href="#ba"/><use transform="matrix(0.05,0,0,0.05,71.9,0)" xlink:href="#aE"/><use transform="matrix(0.05,0,0,0.05,75.85000000000001,0)" xlink:href="#aU"/><use transform="matrix(0.05,0,0,0.05,85.85000000000001,0)" xlink:href="#aW"/><use transform="matrix(0.05,0,0,0.05,95.85000000000001,0)" xlink:href="#aM"/></g><path d="M96-169c-40 0-48 33-48 73s9 75 48 75c24 0 41-14 43-38l32 2c-6 37-31 61-74 61-59 0-76-41-82-99-10-93 101-131 147-64 4 7 5 14 7 22l-32 3c-4-21-16-35-41-35" id="bb"/><path d="M24 0v-261h32V0H24" id="bc"/><g id="w"><use transform="matrix(0.05,0,0,0.05,0,0)" xlink:href="#aP"/><use transform="matrix(0.05,0,0,0.05,12.950000000000001,0)" xlink:href="#aH"/><use transform="matrix(0.05,0,0,0.05,22.950000000000003,0)" xlink:href="#aW"/><use transform="matrix(0.05,0,0,0.05,32.95,0)" xlink:href="#bb"/><use transform="matrix(0.05,0,0,0.05,41.95,0)" xlink:href="#aN"/><use transform="matrix(0.05,0,0,0.05,51.95,0)" xlink:href="#bc"/></g><path d="M106-169C34-169 62-67 57 0H25v-261h32l-1 103c12-21 28-36 61-36 89 0 53 116 60 194h-32v-121c2-32-8-49-39-48" id="bd"/><path d="M143 0L79-87 56-68V0H24v-261h32v163l83-92h37l-77 82L181 0h-38" id="be"/><path d="M84 4C-5 8 30-112 23-190h32v120c0 31 7 50 39 49 72-2 45-101 50-169h31l1 190h-30c-1-10 1-25-2-33-11 22-28 36-60 37" id="bf"/><g id="x"><use transform="matrix(0.05,0,0,0.05,0,0)" xlink:href="#aP"/><use transform="matrix(0.05,0,0,0.05,12.950000000000001,0)" xlink:href="#bd"/><use transform="matrix(0.05,0,0,0.05,22.950000000000003,0)" xlink:href="#aN"/><use transform="matrix(0.05,0,0,0.05,32.95,0)" xlink:href="#bb"/><use transform="matrix(0.05,0,0,0.05,41.95,0)" xlink:href="#be"/><use transform="matrix(0.05,0,0,0.05,50.95,0)" xlink:href="#aU"/><use transform="matrix(0.05,0,0,0.05,60.95,0)" xlink:href="#bf"/><use transform="matrix(0.05,0,0,0.05,70.95,0)" xlink:href="#ba"/></g><path d="M160-131c35 5 61 23 61 61C221 17 115-2 30 0v-248c76 3 177-17 177 60 0 33-19 50-47 57zm-97-11c50-1 110 9 110-42 0-47-63-36-110-37v79zm0 115c55-2 124 14 124-45 0-56-70-42-124-44v89" id="bg"/><g id="y"><use transform="matrix(0.05,0,0,0.05,0,0)" xlink:href="#bg"/><use transform="matrix(0.05,0,0,0.05,12,0)" xlink:href="#aU"/><use transform="matrix(0.05,0,0,0.05,22,0)" xlink:href="#aU"/><use transform="matrix(0.05,0,0,0.05,32,0)" xlink:href="#be"/></g><path d="M30-248c118-7 216 8 213 122C240-48 200 0 122 0H30v-248zM63-27c89 8 146-16 146-99s-60-101-146-95v194" id="bh"/><g id="z"><use transform="matrix(0.05,0,0,0.05,0,0)" xlink:href="#bh"/><use transform="matrix(0.05,0,0,0.05,12.950000000000001,0)" xlink:href="#aE"/><use transform="matrix(0.05,0,0,0.05,16.900000000000002,0)" xlink:href="#aM"/><use transform="matrix(0.05,0,0,0.05,25.900000000000002,0)" xlink:href="#aH"/><use transform="matrix(0.05,0,0,0.05,35.900000000000006,0)" xlink:href="#aF"/><use transform="matrix(0.05,0,0,0.05,45.900000000000006,0)" xlink:href="#bc"/><use transform="matrix(0.05,0,0,0.05,49.85000000000001,0)" xlink:href="#aN"/></g><path d="M190 0L58-211 59 0H30v-248h39L202-35l-2-213h31V0h-41" id="bi"/><path d="M63-220v92h138v28H63V0H30v-248h175v28H63" id="bj"/><g id="A"><use transform="matrix(0.05,0,0,0.05,0,0)" xlink:href="#bi"/><use transform="matrix(0.05,0,0,0.05,12.950000000000001,0)" xlink:href="#bj"/><use transform="matrix(0.05,0,0,0.05,23.900000000000002,0)" xlink:href="#aP"/></g><g id="B"><use transform="matrix(0.05,0,0,0.05,0,0)" xlink:href="#aS"/><use transform="matrix(0.05,0,0,0.05,12,0)" xlink:href="#aN"/><use transform="matrix(0.05,0,0,0.05,22,0)" xlink:href="#bb"/><use transform="matrix(0.05,0,0,0.05,31,0)" xlink:href="#bf"/><use transform="matrix(0.05,0,0,0.05,41,0)" xlink:href="#aG"/><use transform="matrix(0.05,0,0,0.05,46.95,0)" xlink:href="#aE"/><use transform="matrix(0.05,0,0,0.05,50.900000000000006,0)" xlink:href="#ba"/><use transform="matrix(0.05,0,0,0.05,55.900000000000006,0)" xlink:href="#aI"/></g><g id="C"><use transform="matrix(0.05,0,0,0.05,0,0)" xlink:href="#aP"/><use transform="matrix(0.05,0,0,0.05,12.950000000000001,0)" xlink:href="#bd"/><use transform="matrix(0.05,0,0,0.05,22.950000000000003,0)" xlink:href="#aN"/><use transform="matrix(0.05,0,0,0.05,32.95,0)" xlink:href="#bb"/><use transform="matrix(0.05,0,0,0.05,41.95,0)" xlink:href="#be"/></g><g id="D"><use transform="matrix(0.05,0,0,0.05,0,0)" xlink:href="#aJ"/><use transform="matrix(0.05,0,0,0.05,12,0)" xlink:href="#bb"/><use transform="matrix(0.05,0,0,0.05,21,0)" xlink:href="#bb"/><use transform="matrix(0.05,0,0,0.05,30,0)" xlink:href="#aU"/><use transform="matrix(0.05,0,0,0.05,40,0)" xlink:href="#bf"/><use transform="matrix(0.05,0,0,0.05,50,0)" xlink:href="#aW"/><use transform="matrix(0.05,0,0,0.05,60,0)" xlink:href="#ba"/></g><g id="E"><use transform="matrix(0.05,0,0,0.05,0,0)" xlink:href="#aS"/><use transform="matrix(0.05,0,0,0.05,12,0)" xlink:href="#ba"/><use transform="matrix(0.05,0,0,0.05,17,0)" xlink:href="#aH"/><use transform="matrix(0.05,0,0,0.05,27,0)" xlink:href="#ba"/><use transform="matrix(0.05,0,0,0.05,32,0)" xlink:href="#bf"/><use transform="matrix(0.05,0,0,0.05,42,0)" xlink:href="#aM"/></g><g id="F"><use transform="matrix(0.05,0,0,0.05,0,0)" xlink:href="#bh"/><use transform="matrix(0.05,0,0,0.05,12.950000000000001,0)" xlink:href="#aE"/><use transform="matrix(0.05,0,0,0.05,16.900000000000002,0)" xlink:href="#aM"/><use transform="matrix(0.05,0,0,0.05,25.900000000000002,0)" xlink:href="#aK"/><use transform="matrix(0.05,0,0,0.05,35.900000000000006,0)" xlink:href="#bc"/><use transform="matrix(0.05,0,0,0.05,39.85000000000001,0)" xlink:href="#aH"/><use transform="matrix(0.05,0,0,0.05,49.85000000000001,0)" xlink:href="#aI"/></g><g id="G"><use transform="matrix(0.05,0,0,0.05,0,0)" xlink:href="#aJ"/><use transform="matrix(0.05,0,0,0.05,12,0)" xlink:href="#bb"/><use transform="matrix(0.05,0,0,0.05,21,0)" xlink:href="#bb"/><use transform="matrix(0.05,0,0,0.05,30,0)" xlink:href="#aU"/><use transform="matrix(0.05,0,0,0.05,40,0)" xlink:href="#bf"/><use transform="matrix(0.05,0,0,0.05,50,0)" xlink:href="#aW"/><use transform="matrix(0.05,0,0,0.05,60,0)" xlink:href="#ba"/></g><path d="M85-194c31 0 48 13 60 33l-1-100h32l1 261h-30c-2-10 0-23-3-31C134-8 116 4 85 4 32 4 16-35 15-94c0-66 23-100 70-100zm9 24c-40 0-46 34-46 75 0 40 6 74 45 74 42 0 51-32 51-76 0-42-9-74-50-73" id="bk"/><g id="H"><use transform="matrix(0.05,0,0,0.05,0,0)" xlink:href="#bg"/><use transform="matrix(0.05,0,0,0.05,12,0)" xlink:href="#bc"/><use transform="matrix(0.05,0,0,0.05,15.949999999999998,0)" xlink:href="#aU"/><use transform="matrix(0.05,0,0,0.05,25.950000000000003,0)" xlink:href="#bb"/><use transform="matrix(0.05,0,0,0.05,34.95,0)" xlink:href="#be"/><use transform="matrix(0.05,0,0,0.05,43.95,0)" xlink:href="#aN"/><use transform="matrix(0.05,0,0,0.05,53.95,0)" xlink:href="#bk"/></g><path d="M240 0l2-218c-23 76-54 145-80 218h-23L58-218 59 0H30v-248h44l77 211c21-75 51-140 76-211h43V0h-30" id="bl"/><g id="I"><use transform="matrix(0.05,0,0,0.05,0,0)" xlink:href="#bl"/><use transform="matrix(0.05,0,0,0.05,14.950000000000001,0)" xlink:href="#aN"/><use transform="matrix(0.05,0,0,0.05,24.950000000000003,0)" xlink:href="#aM"/><use transform="matrix(0.05,0,0,0.05,33.95,0)" xlink:href="#aM"/><use transform="matrix(0.05,0,0,0.05,42.95,0)" xlink:href="#aH"/><use transform="matrix(0.05,0,0,0.05,52.95,0)" xlink:href="#aV"/><use transform="matrix(0.05,0,0,0.05,62.95,0)" xlink:href="#aN"/></g><g id="J"><use transform="matrix(0.05,0,0,0.05,0,0)" xlink:href="#aZ"/><use transform="matrix(0.05,0,0,0.05,12.950000000000001,0)" xlink:href="#aN"/><use transform="matrix(0.05,0,0,0.05,22.950000000000003,0)" xlink:href="#aH"/><use transform="matrix(0.05,0,0,0.05,32.95,0)" xlink:href="#bk"/></g><g id="K"><use transform="matrix(0.05,0,0,0.05,0,0)" xlink:href="#bg"/><use transform="matrix(0.05,0,0,0.05,12,0)" xlink:href="#aU"/><use transform="matrix(0.05,0,0,0.05,22,0)" xlink:href="#aU"/><use transform="matrix(0.05,0,0,0.05,32,0)" xlink:href="#be"/></g><g id="L"><use transform="matrix(0.05,0,0,0.05,0,0)" xlink:href="#bg"/><use transform="matrix(0.05,0,0,0.05,12,0)" xlink:href="#aH"/><use transform="matrix(0.05,0,0,0.05,22,0)" xlink:href="#aG"/><use transform="matrix(0.05,0,0,0.05,27.950000000000003,0)" xlink:href="#bb"/><use transform="matrix(0.05,0,0,0.05,36.95,0)" xlink:href="#aU"/><use transform="matrix(0.05,0,0,0.05,46.95,0)" xlink:href="#bk"/><use transform="matrix(0.05,0,0,0.05,56.95,0)" xlink:href="#aN"/></g><path d="M18-100v-36l175-74v27L42-118l151 64v27" id="bm"/><path d="M18-27v-27l151-64-151-65v-27l175 74v36" id="bn"/><g id="M"><use transform="matrix(0.05,0,0,0.05,0,0)" xlink:href="#bm"/><use transform="matrix(0.05,0,0,0.05,10.5,0)" xlink:href="#bm"/><use transform="matrix(0.05,0,0,0.05,21,0)" xlink:href="#aE"/><use transform="matrix(0.05,0,0,0.05,24.95,0)" xlink:href="#aW"/><use transform="matrix(0.05,0,0,0.05,34.95,0)" xlink:href="#bb"/><use transform="matrix(0.05,0,0,0.05,43.95,0)" xlink:href="#bc"/><use transform="matrix(0.05,0,0,0.05,47.900000000000006,0)" xlink:href="#bf"/><use transform="matrix(0.05,0,0,0.05,57.900000000000006,0)" xlink:href="#bk"/><use transform="matrix(0.05,0,0,0.05,67.9,0)" xlink:href="#aN"/><use transform="matrix(0.05,0,0,0.05,77.9,0)" xlink:href="#aM"/><use transform="matrix(0.05,0,0,0.05,86.9,0)" xlink:href="#bn"/><use transform="matrix(0.05,0,0,0.05,97.4,0)" xlink:href="#bn"/></g><path d="M141 0L90-78 38 0H4l68-98-65-92h35l48 74 47-74h35l-64 92 68 98h-35" id="bo"/><g id="N"><use transform="matrix(0.05,0,0,0.05,0,0)" xlink:href="#bm"/><use transform="matrix(0.05,0,0,0.05,10.5,0)" xlink:href="#bm"/><use transform="matrix(0.05,0,0,0.05,21,0)" xlink:href="#aN"/><use transform="matrix(0.05,0,0,0.05,31,0)" xlink:href="#bo"/><use transform="matrix(0.05,0,0,0.05,40,0)" xlink:href="#ba"/><use transform="matrix(0.05,0,0,0.05,45,0)" xlink:href="#aN"/><use transform="matrix(0.05,0,0,0.05,55,0)" xlink:href="#aW"/><use transform="matrix(0.05,0,0,0.05,65,0)" xlink:href="#bk"/><use transform="matrix(0.05,0,0,0.05,75,0)" xlink:href="#aM"/><use transform="matrix(0.05,0,0,0.05,84,0)" xlink:href="#bn"/><use transform="matrix(0.05,0,0,0.05,94.5,0)" xlink:href="#bn"/></g><g id="O"><use transform="matrix(0.05,0,0,0.05,0,0)" xlink:href="#bm"/><use transform="matrix(0.05,0,0,0.05,10.5,0)" xlink:href="#bm"/><use transform="matrix(0.05,0,0,0.05,21,0)" xlink:href="#aE"/><use transform="matrix(0.05,0,0,0.05,24.95,0)" xlink:href="#aW"/><use transform="matrix(0.05,0,0,0.05,34.95,0)" xlink:href="#bc"/><use transform="matrix(0.05,0,0,0.05,38.900000000000006,0)" xlink:href="#bb"/><use transform="matrix(0.05,0,0,0.05,47.900000000000006,0)" xlink:href="#bf"/><use transform="matrix(0.05,0,0,0.05,57.900000000000006,0)" xlink:href="#bk"/><use transform="matrix(0.05,0,0,0.05,67.9,0)" xlink:href="#aN"/><use transform="matrix(0.05,0,0,0.05,77.9,0)" xlink:href="#aM"/><use transform="matrix(0.05,0,0,0.05,86.9,0)" xlink:href="#bn"/><use transform="matrix(0.05,0,0,0.05,97.4,0)" xlink:href="#bn"/></g><g id="P"><use transform="matrix(0.05,0,0,0.05,0,0)" xlink:href="#aP"/><use transform="matrix(0.05,0,0,0.05,12.950000000000001,0)" xlink:href="#bd"/><use transform="matrix(0.05,0,0,0.05,22.950000000000003,0)" xlink:href="#aN"/><use transform="matrix(0.05,0,0,0.05,32.95,0)" xlink:href="#bb"/><use transform="matrix(0.05,0,0,0.05,41.95,0)" xlink:href="#be"/><use transform="matrix(0.05,0,0,0.05,50.95,0)" xlink:href="#aU"/><use transform="matrix(0.05,0,0,0.05,60.95,0)" xlink:href="#bf"/><use transform="matrix(0.05,0,0,0.05,70.95,0)" xlink:href="#ba"/></g><path d="M30 0v-248h187v28H63v79h144v27H63v87h162V0H30" id="bp"/><g id="Q"><use transform="matrix(0.05,0,0,0.05,0,0)" xlink:href="#bp"/><use transform="matrix(0.05,0,0,0.05,12,0)" xlink:href="#aG"/><use transform="matrix(0.05,0,0,0.05,17.95,0)" xlink:href="#aG"/><use transform="matrix(0.05,0,0,0.05,23.9,0)" xlink:href="#aU"/><use transform="matrix(0.05,0,0,0.05,33.9,0)" xlink:href="#aG"/></g><g id="R"><use transform="matrix(0.05,0,0,0.05,0,0)" xlink:href="#aS"/><use transform="matrix(0.05,0,0,0.05,12,0)" xlink:href="#aN"/><use transform="matrix(0.05,0,0,0.05,22,0)" xlink:href="#bc"/><use transform="matrix(0.05,0,0,0.05,25.950000000000003,0)" xlink:href="#aN"/><use transform="matrix(0.05,0,0,0.05,35.95,0)" xlink:href="#bb"/><use transform="matrix(0.05,0,0,0.05,44.95,0)" xlink:href="#ba"/></g><g id="S"><use transform="matrix(0.05,0,0,0.05,0,0)" xlink:href="#aD"/><use transform="matrix(0.05,0,0,0.05,10,0)" xlink:href="#aE"/><use transform="matrix(0.05,0,0,0.05,13.949999999999998,0)" xlink:href="#aF"/><use transform="matrix(0.05,0,0,0.05,23.95,0)" xlink:href="#aG"/><use transform="matrix(0.05,0,0,0.05,29.899999999999995,0)" xlink:href="#aH"/><use transform="matrix(0.05,0,0,0.05,39.9,0)" xlink:href="#aG"/><use transform="matrix(0.05,0,0,0.05,45.85,0)" xlink:href="#aI"/></g><g id="T"><use transform="matrix(0.05,0,0,0.05,0,0)" xlink:href="#bg"/><use transform="matrix(0.05,0,0,0.05,12,0)" xlink:href="#aG"/><use transform="matrix(0.05,0,0,0.05,17.95,0)" xlink:href="#aH"/><use transform="matrix(0.05,0,0,0.05,27.950000000000003,0)" xlink:href="#aW"/><use transform="matrix(0.05,0,0,0.05,37.95,0)" xlink:href="#bb"/><use transform="matrix(0.05,0,0,0.05,46.95,0)" xlink:href="#bd"/></g><g id="U"><use transform="matrix(0.05,0,0,0.05,0,0)" xlink:href="#aJ"/><use transform="matrix(0.05,0,0,0.05,12,0)" xlink:href="#bb"/><use transform="matrix(0.05,0,0,0.05,21,0)" xlink:href="#bb"/><use transform="matrix(0.05,0,0,0.05,30,0)" xlink:href="#aN"/><use transform="matrix(0.05,0,0,0.05,40,0)" xlink:href="#aM"/><use transform="matrix(0.05,0,0,0.05,49,0)" xlink:href="#aM"/></g><path d="M127-220V0H93v-220H8v-28h204v28h-85" id="bq"/><g id="V"><use transform="matrix(0.05,0,0,0.05,0,0)" xlink:href="#bq"/><use transform="matrix(0.05,0,0,0.05,8.950000000000001,0)" xlink:href="#aU"/><use transform="matrix(0.05,0,0,0.05,18.950000000000003,0)" xlink:href="#be"/><use transform="matrix(0.05,0,0,0.05,27.950000000000003,0)" xlink:href="#aN"/><use transform="matrix(0.05,0,0,0.05,37.95,0)" xlink:href="#aW"/></g></defs></g></svg>